<mxfile host="app.diagrams.net" modified="2024-01-27T19:31:07.529Z" agent="Mozilla/5.0 (Macintosh; Intel Mac OS X 10_15_7) AppleWebKit/537.36 (KHTML, like Gecko) Chrome/120.0.0.0 Safari/537.36" etag="BpH06w4FiBjVdkFatW0L" version="23.0.2" type="github">
  <diagram id="prtHgNgQTEPvFCAcTncT" name="Page-1">
    <mxGraphModel dx="954" dy="640" grid="1" gridSize="10" guides="1" tooltips="1" connect="1" arrows="1" fold="1" page="1" pageScale="1" pageWidth="827" pageHeight="1169" math="0" shadow="0">
      <root>
        <mxCell id="0" />
        <mxCell id="1" parent="0" />
        <mxCell id="-N5xLN-znwFIy5SRn2DN-1" value="" style="rounded=0;whiteSpace=wrap;html=1;" vertex="1" parent="1">
          <mxGeometry x="40" y="130" width="390" height="40" as="geometry" />
        </mxCell>
        <mxCell id="-N5xLN-znwFIy5SRn2DN-2" value="Id" style="text;html=1;align=center;verticalAlign=middle;resizable=0;points=[];autosize=1;strokeColor=none;fillColor=none;fontSize=15;" vertex="1" parent="1">
          <mxGeometry x="40" y="135" width="40" height="30" as="geometry" />
        </mxCell>
        <mxCell id="-N5xLN-znwFIy5SRn2DN-4" value="First_Name" style="text;html=1;align=center;verticalAlign=middle;resizable=0;points=[];autosize=1;strokeColor=none;fillColor=none;fontSize=15;" vertex="1" parent="1">
          <mxGeometry x="70" y="135" width="100" height="30" as="geometry" />
        </mxCell>
        <mxCell id="-N5xLN-znwFIy5SRn2DN-5" value="Last_Name" style="text;html=1;align=center;verticalAlign=middle;resizable=0;points=[];autosize=1;strokeColor=none;fillColor=none;fontSize=15;" vertex="1" parent="1">
          <mxGeometry x="160" y="135" width="100" height="30" as="geometry" />
        </mxCell>
        <mxCell id="-N5xLN-znwFIy5SRn2DN-6" value="Email" style="text;html=1;align=center;verticalAlign=middle;resizable=0;points=[];autosize=1;strokeColor=none;fillColor=none;fontSize=15;" vertex="1" parent="1">
          <mxGeometry x="250" y="135" width="60" height="30" as="geometry" />
        </mxCell>
        <mxCell id="-N5xLN-znwFIy5SRn2DN-7" value="Phone_Number" style="text;html=1;align=center;verticalAlign=middle;resizable=0;points=[];autosize=1;strokeColor=none;fillColor=none;fontSize=15;" vertex="1" parent="1">
          <mxGeometry x="300" y="135" width="130" height="30" as="geometry" />
        </mxCell>
        <mxCell id="-N5xLN-znwFIy5SRn2DN-9" value="" style="rounded=0;whiteSpace=wrap;html=1;" vertex="1" parent="1">
          <mxGeometry x="530" y="370" width="210" height="40" as="geometry" />
        </mxCell>
        <mxCell id="-N5xLN-znwFIy5SRn2DN-10" value="" style="rounded=0;whiteSpace=wrap;html=1;" vertex="1" parent="1">
          <mxGeometry x="140" y="310" width="160" height="40" as="geometry" />
        </mxCell>
        <mxCell id="-N5xLN-znwFIy5SRn2DN-11" value="" style="rounded=0;whiteSpace=wrap;html=1;" vertex="1" parent="1">
          <mxGeometry x="414" y="510" width="225" height="40" as="geometry" />
        </mxCell>
        <mxCell id="-N5xLN-znwFIy5SRn2DN-12" value="" style="rounded=0;whiteSpace=wrap;html=1;" vertex="1" parent="1">
          <mxGeometry x="414" y="230" width="400" height="40" as="geometry" />
        </mxCell>
        <mxCell id="-N5xLN-znwFIy5SRn2DN-13" value="" style="rounded=0;whiteSpace=wrap;html=1;" vertex="1" parent="1">
          <mxGeometry x="254" y="410" width="200" height="40" as="geometry" />
        </mxCell>
        <mxCell id="-N5xLN-znwFIy5SRn2DN-15" value="Id" style="text;html=1;align=center;verticalAlign=middle;resizable=0;points=[];autosize=1;strokeColor=none;fillColor=none;fontSize=15;" vertex="1" parent="1">
          <mxGeometry x="414" y="235" width="40" height="30" as="geometry" />
        </mxCell>
        <mxCell id="-N5xLN-znwFIy5SRn2DN-17" value="User_Id" style="text;html=1;align=center;verticalAlign=middle;resizable=0;points=[];autosize=1;strokeColor=none;fillColor=none;fontSize=15;" vertex="1" parent="1">
          <mxGeometry x="444" y="235" width="80" height="30" as="geometry" />
        </mxCell>
        <mxCell id="-N5xLN-znwFIy5SRn2DN-18" value="Team_Id" style="text;html=1;align=center;verticalAlign=middle;resizable=0;points=[];autosize=1;strokeColor=none;fillColor=none;fontSize=15;" vertex="1" parent="1">
          <mxGeometry x="514" y="235" width="80" height="30" as="geometry" />
        </mxCell>
        <mxCell id="-N5xLN-znwFIy5SRn2DN-19" value="Birthdate" style="text;html=1;align=center;verticalAlign=middle;resizable=0;points=[];autosize=1;strokeColor=none;fillColor=none;fontSize=15;" vertex="1" parent="1">
          <mxGeometry x="584" y="235" width="80" height="30" as="geometry" />
        </mxCell>
        <mxCell id="-N5xLN-znwFIy5SRn2DN-20" value="Address" style="text;html=1;align=center;verticalAlign=middle;resizable=0;points=[];autosize=1;strokeColor=none;fillColor=none;fontSize=15;" vertex="1" parent="1">
          <mxGeometry x="651" y="235" width="80" height="30" as="geometry" />
        </mxCell>
        <mxCell id="-N5xLN-znwFIy5SRn2DN-21" value="TShirt_Size" style="text;html=1;align=center;verticalAlign=middle;resizable=0;points=[];autosize=1;strokeColor=none;fillColor=none;fontSize=15;" vertex="1" parent="1">
          <mxGeometry x="714" y="235" width="100" height="30" as="geometry" />
        </mxCell>
        <mxCell id="-N5xLN-znwFIy5SRn2DN-22" value="Id" style="text;html=1;align=center;verticalAlign=middle;resizable=0;points=[];autosize=1;strokeColor=none;fillColor=none;fontSize=15;" vertex="1" parent="1">
          <mxGeometry x="530" y="375" width="40" height="30" as="geometry" />
        </mxCell>
        <mxCell id="-N5xLN-znwFIy5SRn2DN-23" value="Profile_Id" style="text;html=1;align=center;verticalAlign=middle;resizable=0;points=[];autosize=1;strokeColor=none;fillColor=none;fontSize=15;" vertex="1" parent="1">
          <mxGeometry x="555" y="375" width="90" height="30" as="geometry" />
        </mxCell>
        <mxCell id="-N5xLN-znwFIy5SRn2DN-24" value="Social_Media" style="text;html=1;align=center;verticalAlign=middle;resizable=0;points=[];autosize=1;strokeColor=none;fillColor=none;fontSize=15;" vertex="1" parent="1">
          <mxGeometry x="630" y="375" width="110" height="30" as="geometry" />
        </mxCell>
        <mxCell id="-N5xLN-znwFIy5SRn2DN-25" value="Id" style="text;html=1;align=center;verticalAlign=middle;resizable=0;points=[];autosize=1;strokeColor=none;fillColor=none;fontSize=15;" vertex="1" parent="1">
          <mxGeometry x="140" y="315" width="40" height="30" as="geometry" />
        </mxCell>
        <mxCell id="-N5xLN-znwFIy5SRn2DN-26" value="Name" style="text;html=1;align=center;verticalAlign=middle;resizable=0;points=[];autosize=1;strokeColor=none;fillColor=none;fontSize=15;" vertex="1" parent="1">
          <mxGeometry x="170" y="315" width="60" height="30" as="geometry" />
        </mxCell>
        <mxCell id="-N5xLN-znwFIy5SRn2DN-27" value="Created" style="text;html=1;align=center;verticalAlign=middle;resizable=0;points=[];autosize=1;strokeColor=none;fillColor=none;fontSize=15;" vertex="1" parent="1">
          <mxGeometry x="220" y="315" width="80" height="30" as="geometry" />
        </mxCell>
        <mxCell id="-N5xLN-znwFIy5SRn2DN-28" value="Id" style="text;html=1;align=center;verticalAlign=middle;resizable=0;points=[];autosize=1;strokeColor=none;fillColor=none;fontSize=15;" vertex="1" parent="1">
          <mxGeometry x="254" y="415" width="40" height="30" as="geometry" />
        </mxCell>
        <mxCell id="-N5xLN-znwFIy5SRn2DN-29" value="Team_Id" style="text;html=1;align=center;verticalAlign=middle;resizable=0;points=[];autosize=1;strokeColor=none;fillColor=none;fontSize=15;" vertex="1" parent="1">
          <mxGeometry x="284" y="415" width="80" height="30" as="geometry" />
        </mxCell>
        <mxCell id="-N5xLN-znwFIy5SRn2DN-30" value="Contest_Id" style="text;html=1;align=center;verticalAlign=middle;resizable=0;points=[];autosize=1;strokeColor=none;fillColor=none;fontSize=15;" vertex="1" parent="1">
          <mxGeometry x="354" y="415" width="100" height="30" as="geometry" />
        </mxCell>
        <mxCell id="-N5xLN-znwFIy5SRn2DN-31" value="Id" style="text;html=1;align=center;verticalAlign=middle;resizable=0;points=[];autosize=1;strokeColor=none;fillColor=none;fontSize=15;" vertex="1" parent="1">
          <mxGeometry x="414" y="515" width="40" height="30" as="geometry" />
        </mxCell>
        <mxCell id="-N5xLN-znwFIy5SRn2DN-32" value="Name" style="text;html=1;align=center;verticalAlign=middle;resizable=0;points=[];autosize=1;strokeColor=none;fillColor=none;fontSize=15;" vertex="1" parent="1">
          <mxGeometry x="439" y="515" width="60" height="30" as="geometry" />
        </mxCell>
        <mxCell id="-N5xLN-znwFIy5SRn2DN-33" value="Max_Teams" style="text;html=1;align=center;verticalAlign=middle;resizable=0;points=[];autosize=1;strokeColor=none;fillColor=none;fontSize=15;" vertex="1" parent="1">
          <mxGeometry x="489" y="515" width="100" height="30" as="geometry" />
        </mxCell>
        <mxCell id="-N5xLN-znwFIy5SRn2DN-34" value="Logo" style="text;html=1;align=center;verticalAlign=middle;resizable=0;points=[];autosize=1;strokeColor=none;fillColor=none;fontSize=15;" vertex="1" parent="1">
          <mxGeometry x="579" y="515" width="60" height="30" as="geometry" />
        </mxCell>
        <mxCell id="-N5xLN-znwFIy5SRn2DN-38" value="" style="endArrow=classic;html=1;rounded=0;entryX=0.062;entryY=1.075;entryDx=0;entryDy=0;entryPerimeter=0;exitX=0.062;exitY=1.075;exitDx=0;exitDy=0;exitPerimeter=0;" edge="1" parent="1" source="-N5xLN-znwFIy5SRn2DN-1">
          <mxGeometry width="50" height="50" relative="1" as="geometry">
            <mxPoint x="500" y="160" as="sourcePoint" />
            <mxPoint x="480" y="230" as="targetPoint" />
            <Array as="points">
              <mxPoint x="64" y="210" />
              <mxPoint x="480" y="210" />
            </Array>
          </mxGeometry>
        </mxCell>
        <mxCell id="-N5xLN-znwFIy5SRn2DN-39" value="" style="endArrow=classic;html=1;rounded=0;entryX=0.338;entryY=1;entryDx=0;entryDy=0;entryPerimeter=0;exitX=0.125;exitY=-0.025;exitDx=0;exitDy=0;exitPerimeter=0;" edge="1" parent="1" source="-N5xLN-znwFIy5SRn2DN-10" target="-N5xLN-znwFIy5SRn2DN-12">
          <mxGeometry width="50" height="50" relative="1" as="geometry">
            <mxPoint x="240" y="280" as="sourcePoint" />
            <mxPoint x="550" y="280" as="targetPoint" />
            <Array as="points">
              <mxPoint x="160" y="290" />
              <mxPoint x="260" y="290" />
              <mxPoint x="360" y="290" />
              <mxPoint x="460" y="290" />
              <mxPoint x="549" y="290" />
            </Array>
          </mxGeometry>
        </mxCell>
        <mxCell id="-N5xLN-znwFIy5SRn2DN-40" value="" style="endArrow=classic;html=1;rounded=0;exitX=0.125;exitY=0.975;exitDx=0;exitDy=0;exitPerimeter=0;entryX=0.33;entryY=-0.05;entryDx=0;entryDy=0;entryPerimeter=0;" edge="1" parent="1" source="-N5xLN-znwFIy5SRn2DN-10" target="-N5xLN-znwFIy5SRn2DN-13">
          <mxGeometry width="50" height="50" relative="1" as="geometry">
            <mxPoint x="370" y="350" as="sourcePoint" />
            <mxPoint x="320" y="400" as="targetPoint" />
            <Array as="points">
              <mxPoint x="160" y="380" />
              <mxPoint x="320" y="380" />
            </Array>
          </mxGeometry>
        </mxCell>
        <mxCell id="-N5xLN-znwFIy5SRn2DN-42" value="" style="endArrow=classic;html=1;rounded=0;exitX=0.084;exitY=-0.025;exitDx=0;exitDy=0;exitPerimeter=0;entryX=0.75;entryY=1;entryDx=0;entryDy=0;" edge="1" parent="1" source="-N5xLN-znwFIy5SRn2DN-11" target="-N5xLN-znwFIy5SRn2DN-13">
          <mxGeometry width="50" height="50" relative="1" as="geometry">
            <mxPoint x="464" y="495" as="sourcePoint" />
            <mxPoint x="514" y="445" as="targetPoint" />
            <Array as="points">
              <mxPoint x="433" y="490" />
              <mxPoint x="404" y="490" />
            </Array>
          </mxGeometry>
        </mxCell>
        <mxCell id="-N5xLN-znwFIy5SRn2DN-44" value="FK" style="text;html=1;align=center;verticalAlign=middle;resizable=0;points=[];autosize=1;strokeColor=none;fillColor=none;fontSize=15;" vertex="1" parent="1">
          <mxGeometry x="484" y="200" width="40" height="30" as="geometry" />
        </mxCell>
        <mxCell id="-N5xLN-znwFIy5SRn2DN-45" value="FK" style="text;html=1;align=center;verticalAlign=middle;resizable=0;points=[];autosize=1;strokeColor=none;fillColor=none;fontSize=15;" vertex="1" parent="1">
          <mxGeometry x="549" y="265" width="40" height="30" as="geometry" />
        </mxCell>
        <mxCell id="-N5xLN-znwFIy5SRn2DN-46" value="FK" style="text;html=1;align=center;verticalAlign=middle;resizable=0;points=[];autosize=1;strokeColor=none;fillColor=none;fontSize=15;" vertex="1" parent="1">
          <mxGeometry x="404" y="450" width="40" height="30" as="geometry" />
        </mxCell>
        <mxCell id="-N5xLN-znwFIy5SRn2DN-47" value="" style="endArrow=classic;html=1;rounded=0;exitX=0.06;exitY=1.025;exitDx=0;exitDy=0;exitPerimeter=0;entryX=0.329;entryY=-0.025;entryDx=0;entryDy=0;entryPerimeter=0;" edge="1" parent="1" source="-N5xLN-znwFIy5SRn2DN-12" target="-N5xLN-znwFIy5SRn2DN-9">
          <mxGeometry width="50" height="50" relative="1" as="geometry">
            <mxPoint x="645" y="295" as="sourcePoint" />
            <mxPoint x="595" y="345" as="targetPoint" />
            <Array as="points">
              <mxPoint x="438" y="340" />
              <mxPoint x="600" y="340" />
            </Array>
          </mxGeometry>
        </mxCell>
        <mxCell id="-N5xLN-znwFIy5SRn2DN-48" value="FK" style="text;html=1;align=center;verticalAlign=middle;resizable=0;points=[];autosize=1;strokeColor=none;fillColor=none;fontSize=15;" vertex="1" parent="1">
          <mxGeometry x="599" y="340" width="40" height="30" as="geometry" />
        </mxCell>
        <mxCell id="-N5xLN-znwFIy5SRn2DN-49" value="FK" style="text;html=1;align=center;verticalAlign=middle;resizable=0;points=[];autosize=1;strokeColor=none;fillColor=none;fontSize=15;" vertex="1" parent="1">
          <mxGeometry x="320" y="380" width="40" height="30" as="geometry" />
        </mxCell>
        <mxCell id="-N5xLN-znwFIy5SRn2DN-50" value="USERS" style="text;html=1;align=center;verticalAlign=middle;resizable=0;points=[];autosize=1;strokeColor=none;fillColor=none;fontSize=15;" vertex="1" parent="1">
          <mxGeometry x="30" y="90" width="80" height="30" as="geometry" />
        </mxCell>
        <mxCell id="-N5xLN-znwFIy5SRn2DN-51" value="PROFILES" style="text;html=1;align=center;verticalAlign=middle;resizable=0;points=[];autosize=1;strokeColor=none;fillColor=none;fontSize=15;" vertex="1" parent="1">
          <mxGeometry x="721" y="190" width="100" height="30" as="geometry" />
        </mxCell>
        <mxCell id="-N5xLN-znwFIy5SRn2DN-52" value="TEAMS" style="text;html=1;align=center;verticalAlign=middle;resizable=0;points=[];autosize=1;strokeColor=none;fillColor=none;fontSize=15;" vertex="1" parent="1">
          <mxGeometry x="50" y="315" width="80" height="30" as="geometry" />
        </mxCell>
        <mxCell id="-N5xLN-znwFIy5SRn2DN-53" value="PROFILE_SOCIAL_MEDIA" style="text;html=1;align=center;verticalAlign=middle;resizable=0;points=[];autosize=1;strokeColor=none;fillColor=none;fontSize=15;" vertex="1" parent="1">
          <mxGeometry x="530" y="415" width="210" height="30" as="geometry" />
        </mxCell>
        <mxCell id="-N5xLN-znwFIy5SRn2DN-54" value="TEAM_CONTEST" style="text;html=1;align=center;verticalAlign=middle;resizable=0;points=[];autosize=1;strokeColor=none;fillColor=none;fontSize=15;" vertex="1" parent="1">
          <mxGeometry x="100" y="415" width="150" height="30" as="geometry" />
        </mxCell>
        <mxCell id="-N5xLN-znwFIy5SRn2DN-55" value="CONTEST" style="text;html=1;align=center;verticalAlign=middle;resizable=0;points=[];autosize=1;strokeColor=none;fillColor=none;fontSize=15;" vertex="1" parent="1">
          <mxGeometry x="310" y="515" width="100" height="30" as="geometry" />
        </mxCell>
      </root>
    </mxGraphModel>
  </diagram>
</mxfile>
